<?xml version="1.0" standalone="no"?>
<!DOCTYPE svg PUBLIC "-//W3C//DTD SVG 20010904//EN"
 "http://www.w3.org/TR/2001/REC-SVG-20010904/DTD/svg10.dtd">
<svg version="1.0" xmlns="http://www.w3.org/2000/svg"
 width="2171.000000pt" height="2171.000000pt" viewBox="0 0 2171.000000 2171.000000"
 preserveAspectRatio="xMidYMid meet">
<metadata>
Created by potrace 1.14, written by Peter Selinger 2001-2017
</metadata>
<g transform="translate(0.000000,2171.000000) scale(0.100000,-0.100000)"
fill="#000000" stroke="none">
<path d="M10735 21694 c-246 -43 -444 -210 -532 -448 -39 -107 -40 -126 -39
-1403 l2 -1238 22 -70 c76 -237 241 -401 477 -475 54 -17 102 -23 205 -25 194
-5 460 -16 495 -20 17 -2 72 -7 123 -10 51 -3 102 -8 114 -10 12 -3 49 -7 82
-10 34 -3 72 -7 86 -10 14 -2 61 -9 105 -15 184 -26 405 -67 555 -102 47 -11
92 -21 100 -23 159 -35 561 -153 690 -202 8 -3 20 -7 25 -9 48 -12 408 -156
523 -210 41 -19 76 -34 78 -34 10 0 309 -151 319 -161 5 -5 14 -9 21 -9 6 0
94 -48 195 -106 101 -58 200 -115 219 -126 19 -11 42 -26 51 -34 8 -8 18 -14
21 -14 16 0 526 -354 548 -380 3 -3 23 -19 45 -35 22 -17 42 -32 45 -36 3 -3
29 -24 59 -48 76 -59 211 -176 321 -276 77 -70 442 -435 485 -485 108 -126
161 -186 166 -190 12 -11 209 -260 264 -335 33 -44 63 -84 67 -90 83 -109 297
-437 379 -580 169 -297 277 -510 378 -745 35 -80 67 -155 72 -167 5 -13 13
-33 19 -45 79 -187 179 -486 254 -756 40 -145 107 -429 121 -512 3 -19 8 -42
10 -50 2 -8 7 -31 10 -50 3 -19 8 -42 10 -50 2 -8 7 -35 10 -60 5 -39 11 -76
30 -200 2 -14 6 -47 10 -75 3 -27 7 -66 10 -85 7 -59 16 -152 20 -205 2 -27 6
-86 9 -130 14 -191 17 -264 16 -500 -1 -137 -3 -275 -4 -305 -9 -152 -24 -358
-31 -410 -2 -19 -7 -60 -10 -90 -7 -61 -14 -122 -20 -160 -2 -14 -6 -45 -10
-70 -3 -25 -8 -56 -10 -70 -3 -14 -7 -41 -10 -60 -3 -19 -8 -48 -11 -65 -59
-365 -227 -972 -356 -1290 -15 -38 -28 -73 -28 -77 0 -3 -27 -69 -59 -145
-251 -588 -517 -1052 -881 -1538 -71 -93 -141 -185 -156 -204 -200 -241 -187
-225 -344 -395 -138 -149 -353 -358 -505 -491 -38 -33 -73 -65 -79 -71 -34
-32 -341 -274 -447 -350 -195 -142 -464 -317 -626 -409 -21 -12 -143 -80 -193
-108 -44 -25 -353 -179 -400 -200 -170 -75 -221 -97 -225 -97 -2 0 -28 -11
-57 -25 -270 -125 -969 -334 -1343 -401 -22 -4 -44 -8 -50 -10 -13 -3 -330
-54 -370 -59 -165 -22 -358 -40 -555 -52 -231 -13 -758 -7 -970 12 -67 6 -165
16 -205 20 -22 3 -62 7 -90 11 -27 3 -61 7 -75 9 -14 2 -45 7 -70 10 -275 37
-674 122 -965 206 -186 54 -584 190 -680 234 -16 7 -53 23 -81 34 -28 11 -73
29 -100 41 -27 12 -58 26 -69 30 -75 32 -453 221 -560 281 -281 157 -563 340
-835 543 -74 55 -137 103 -140 106 -3 3 -54 46 -115 95 -262 214 -660 603
-864 845 -30 36 -60 70 -66 75 -23 21 -183 225 -294 375 -124 167 -411 605
-411 626 0 3 -11 21 -24 42 -115 175 -365 701 -484 1017 -69 182 -171 484
-188 555 -2 8 -10 40 -19 70 -9 30 -17 62 -19 70 -2 8 -16 62 -31 120 -37 144
-108 488 -121 585 -3 28 -8 59 -10 70 -2 10 -6 37 -9 60 -3 22 -8 51 -10 65
-2 14 -7 52 -10 85 -4 33 -8 71 -10 85 -8 47 -19 186 -32 380 -14 225 -8 795
12 985 2 22 7 69 10 105 10 109 14 145 31 265 6 46 42 277 49 315 5 29 8 40
35 175 29 144 37 180 45 205 3 10 7 27 9 37 20 97 149 544 180 623 8 19 36 94
62 165 48 132 127 329 169 420 13 28 33 73 45 100 30 67 170 347 216 432 158
288 429 709 581 903 6 8 56 71 110 140 54 69 110 139 125 155 14 17 36 41 47
55 151 180 431 469 620 640 52 47 105 95 118 107 13 11 41 35 63 53 21 17 49
41 62 52 57 50 295 233 408 315 302 216 611 403 957 579 101 51 206 109 233
129 123 90 233 261 264 410 16 80 15 237 -3 305 -50 190 -155 335 -313 432
-176 109 -396 133 -590 67 -55 -19 -353 -167 -493 -244 -235 -130 -475 -278
-683 -419 -74 -50 -143 -98 -155 -106 -184 -124 -539 -409 -791 -633 -212
-188 -677 -671 -821 -852 -22 -27 -43 -52 -46 -55 -35 -30 -342 -438 -470
-625 -111 -163 -353 -551 -382 -615 -4 -8 -27 -51 -52 -95 -134 -239 -314
-617 -427 -900 -61 -151 -157 -407 -163 -435 -2 -8 -18 -55 -35 -105 -76 -223
-212 -727 -244 -910 -7 -35 -12 -60 -26 -130 -15 -75 -17 -86 -40 -223 -12
-70 -23 -138 -25 -152 -3 -14 -7 -50 -11 -80 -3 -30 -8 -63 -10 -74 -2 -10 -6
-44 -9 -75 -4 -31 -8 -67 -11 -81 -2 -14 -7 -63 -10 -110 -4 -47 -8 -92 -10
-100 -1 -8 -3 -22 -3 -31 -1 -14 -81 -16 -839 -16 -460 -1 -855 -4 -877 -7
-146 -21 -284 -90 -389 -193 -133 -131 -205 -304 -207 -493 -1 -285 176 -545
446 -652 112 -44 141 -46 1020 -46 460 1 838 -2 840 -4 5 -5 10 -41 20 -163 3
-38 8 -83 10 -100 3 -16 7 -52 10 -80 3 -27 10 -81 16 -120 5 -38 12 -88 14
-110 3 -22 10 -62 15 -90 5 -27 12 -66 14 -85 15 -99 22 -130 80 -400 25 -113
57 -248 71 -300 14 -52 28 -105 31 -118 12 -57 149 -498 182 -582 3 -8 6 -17
6 -20 2 -7 52 -139 93 -245 32 -81 121 -295 160 -385 45 -102 251 -512 313
-625 142 -256 323 -546 497 -795 182 -261 445 -589 686 -855 107 -118 440
-450 546 -545 46 -41 89 -80 96 -87 12 -12 52 -46 160 -138 32 -27 63 -55 69
-60 70 -68 598 -459 715 -530 9 -6 54 -35 101 -66 452 -296 992 -572 1534
-784 190 -74 554 -198 721 -245 61 -17 133 -37 160 -45 105 -31 496 -120 610
-140 17 -2 41 -7 55 -10 50 -10 146 -27 175 -31 17 -3 71 -11 120 -19 50 -8
115 -17 145 -20 50 -5 84 -9 160 -20 26 -4 149 -15 213 -20 21 -1 41 -5 44 -9
3 -3 7 -396 7 -873 l2 -868 27 -80 c73 -209 227 -370 422 -441 90 -33 107 -36
220 -40 131 -4 216 14 333 72 200 98 352 310 377 523 4 35 7 434 7 887 1 753
2 824 17 825 9 0 23 2 31 3 8 2 53 7 100 11 139 12 193 18 310 35 36 6 81 12
100 14 53 7 104 15 220 36 58 11 119 22 135 24 290 50 779 179 1145 303 408
138 973 383 1275 553 17 9 66 37 110 60 284 153 670 402 980 634 104 77 421
329 435 345 3 3 39 35 80 71 41 36 101 90 135 120 78 71 474 467 546 545 99
109 205 232 299 345 89 109 90 110 145 180 27 36 53 67 57 68 5 2 8 10 8 17 0
7 4 15 8 17 17 7 206 272 335 468 145 224 270 435 394 665 54 101 233 462 233
469 0 3 15 37 34 78 18 40 46 102 60 138 15 36 33 79 40 95 20 44 79 197 116
300 18 50 36 99 41 110 8 20 69 202 73 220 2 6 15 51 31 100 16 50 30 95 31
100 1 6 11 42 22 80 25 85 89 330 96 365 2 14 11 54 20 90 8 36 17 76 20 90 2
14 14 70 25 125 11 55 22 114 25 130 3 17 8 41 11 55 3 14 7 41 9 60 3 19 14
91 25 160 10 69 22 152 26 185 3 33 8 74 10 90 7 50 13 110 21 197 3 46 8 85
10 86 1 2 393 5 871 6 l868 2 86 30 c336 117 528 431 473 774 -34 218 -174
409 -373 509 -60 31 -157 61 -216 68 -27 3 -424 6 -881 6 l-831 0 -2 50 c-1
27 -3 53 -5 56 -3 3 -7 42 -11 86 -3 44 -8 91 -10 105 -2 14 -7 50 -10 80 -6
52 -48 335 -61 410 -3 19 -21 112 -40 205 -19 94 -37 181 -40 195 -3 14 -25
104 -50 200 -24 96 -47 184 -49 195 -3 11 -19 65 -35 120 -17 55 -33 109 -35
120 -13 59 -189 556 -230 650 -7 17 -27 66 -45 110 -18 44 -48 113 -66 153
-19 41 -34 75 -34 77 0 24 -242 502 -343 680 -22 39 -51 90 -64 115 -14 24
-33 57 -44 71 -10 15 -19 30 -19 33 0 9 -194 309 -287 444 -233 338 -518 693
-792 987 -159 170 -445 448 -591 575 -35 30 -71 62 -80 71 -41 39 -327 270
-448 361 -222 166 -471 335 -717 485 -319 194 -768 425 -1068 549 -34 14 -77
32 -95 41 -239 109 -1026 365 -1249 406 -10 2 -36 9 -58 15 -22 6 -53 13 -70
16 -16 2 -70 14 -120 25 -49 11 -101 22 -115 24 -108 20 -150 27 -185 32 -22
4 -47 8 -55 10 -36 10 -291 46 -420 60 -25 3 -61 7 -80 10 -19 2 -69 7 -110
10 -41 4 -82 8 -91 11 -15 4 -17 76 -17 832 0 455 -3 851 -7 881 -12 95 -70
245 -112 289 -7 7 -13 16 -13 20 0 12 -92 106 -140 144 -142 114 -357 166
-545 132z"/>
<path d="M10366 16753 c-1 -1 -31 -4 -66 -7 -89 -8 -206 -23 -340 -46 -30 -5
-73 -11 -95 -15 -50 -7 -200 -36 -257 -51 -13 -3 -36 -7 -53 -10 -41 -7 -340
-83 -390 -99 -22 -7 -74 -23 -115 -35 -149 -45 -431 -149 -588 -219 -247 -109
-406 -193 -710 -376 -9 -6 -43 -27 -75 -48 -31 -20 -60 -37 -63 -37 -2 0 -17
-8 -32 -19 -15 -10 -63 -42 -107 -71 -74 -48 -241 -171 -296 -218 -13 -11 -46
-39 -74 -62 -129 -108 -214 -188 -390 -364 -196 -196 -244 -247 -355 -376 -36
-41 -67 -77 -70 -80 -3 -3 -30 -36 -60 -75 -30 -38 -61 -77 -70 -85 -8 -8 -22
-25 -30 -36 -8 -12 -58 -82 -112 -155 -96 -134 -258 -383 -258 -397 0 -4 -5
-13 -12 -20 -20 -20 -92 -154 -204 -382 -58 -118 -109 -224 -114 -235 -4 -11
-17 -40 -28 -65 -112 -254 -257 -687 -317 -949 -16 -67 -67 -313 -71 -341 -3
-19 -7 -42 -9 -50 -2 -8 -7 -40 -10 -70 -3 -30 -7 -66 -10 -80 -4 -25 -9 -57
-21 -160 -19 -166 -27 -351 -27 -650 1 -288 10 -529 28 -670 48 -397 102 -683
176 -940 51 -174 144 -442 192 -552 8 -18 24 -53 35 -78 11 -25 30 -70 42
-100 50 -120 262 -525 364 -695 266 -443 558 -823 882 -1150 156 -157 186
-184 334 -306 387 -317 1104 -789 1199 -789 12 0 21 1 22 3 8 38 13 372 14
860 l0 618 -51 47 c-28 26 -88 76 -135 112 -253 196 -457 386 -674 631 -97
109 -270 340 -387 519 -313 476 -550 1076 -652 1645 -26 145 -26 148 -31 195
-3 25 -10 77 -15 115 -20 153 -24 241 -25 510 0 244 7 438 19 501 2 10 7 50
11 87 3 37 8 76 10 86 4 20 11 67 21 129 38 247 170 702 268 927 7 17 35 80
62 140 57 131 146 304 222 435 70 122 174 284 184 288 5 2 8 8 8 14 0 26 300
406 425 537 466 491 925 820 1495 1069 179 78 186 79 203 45 8 -16 15 -50 17
-78 3 -56 3 -400 0 -812 l-3 -271 -80 -44 c-402 -216 -816 -589 -1097 -989
-28 -41 -58 -83 -65 -94 -157 -220 -365 -647 -444 -915 -13 -41 -29 -95 -36
-120 -16 -52 -42 -154 -48 -190 -3 -14 -12 -59 -20 -100 -9 -41 -19 -99 -22
-129 -4 -30 -9 -63 -11 -75 -18 -97 -26 -561 -12 -716 14 -157 40 -306 88
-520 10 -45 77 -273 89 -302 13 -32 24 -61 27 -73 1 -5 25 -65 53 -132 142
-342 348 -679 589 -962 171 -201 460 -462 677 -613 197 -137 479 -287 685
-366 72 -27 226 -81 250 -87 8 -2 56 -15 105 -28 102 -28 211 -53 270 -62 22
-3 76 -12 120 -20 44 -8 94 -17 110 -20 66 -11 213 -17 467 -19 147 0 269 -4
273 -7 5 -6 9 -344 20 -1859 2 -245 4 -464 4 -487 l1 -42 123 4 c67 3 140 7
162 9 22 3 67 8 100 12 33 3 69 8 80 10 11 3 39 7 61 10 23 2 53 7 65 9 13 3
35 7 49 9 14 3 41 8 60 10 42 6 265 55 420 91 87 21 346 97 465 137 186 63
262 92 430 166 39 17 90 39 115 48 69 27 405 205 528 279 10 6 46 28 82 49
254 154 618 417 800 580 218 194 337 309 459 444 36 41 77 86 91 101 14 14 50
55 80 91 30 35 71 82 91 104 180 204 438 594 641 971 62 114 156 310 220 460
33 77 64 145 68 150 14 19 111 297 147 419 32 110 65 238 77 298 3 13 14 64
25 113 11 50 22 106 25 125 3 19 8 46 11 60 16 79 45 265 50 320 3 36 14 118
20 157 2 12 7 61 10 109 4 49 9 100 10 114 24 182 24 838 1 1000 -2 14 -7 57
-10 95 -4 39 -9 77 -11 85 -2 8 -6 38 -10 65 -3 28 -8 59 -10 70 -3 11 -7 38
-10 60 -3 22 -7 47 -10 55 -2 8 -6 32 -9 52 -3 21 -10 57 -15 80 -6 24 -13 59
-16 78 -10 60 -92 380 -124 480 -88 285 -185 539 -297 780 -74 161 -106 222
-227 440 -72 130 -278 450 -344 536 -13 16 -46 61 -75 99 -250 337 -617 719
-979 1020 -283 236 -755 551 -1006 671 -95 46 -106 44 -114 -26 -3 -30 -6
-366 -8 -747 l-2 -692 58 -37 c55 -35 221 -166 308 -243 56 -50 445 -440 475
-476 70 -85 126 -151 131 -155 14 -13 162 -216 226 -310 259 -384 465 -824
597 -1270 57 -195 93 -344 116 -485 5 -33 12 -69 14 -80 2 -11 7 -42 10 -68 4
-27 9 -56 11 -66 2 -9 6 -48 9 -86 4 -39 9 -77 11 -85 7 -29 18 -297 17 -440
-1 -142 -8 -310 -17 -380 -2 -19 -9 -78 -15 -130 -6 -52 -15 -117 -20 -145 -5
-27 -12 -63 -15 -80 -26 -159 -101 -484 -142 -615 -115 -372 -307 -767 -542
-1118 -31 -46 -60 -91 -66 -100 -5 -10 -12 -19 -15 -22 -3 -3 -29 -38 -58 -78
-29 -40 -59 -80 -67 -90 -8 -9 -27 -33 -42 -53 -198 -253 -474 -533 -709 -720
-49 -39 -98 -79 -109 -88 -47 -39 -256 -177 -456 -300 -137 -85 -376 -213
-444 -239 -16 -6 -66 -27 -110 -46 -58 -25 -85 -31 -97 -25 -10 6 -18 13 -19
17 0 4 -3 16 -6 27 -9 35 -10 952 0 1033 9 86 33 130 82 156 30 17 65 37 152
90 67 41 214 148 303 220 242 196 503 475 674 719 147 212 284 454 292 517 7
59 62 55 -755 55 l-749 0 -74 -70 c-84 -80 -171 -156 -242 -210 -54 -41 -175
-125 -181 -125 -1 0 -33 -18 -69 -40 -166 -101 -382 -189 -601 -244 -59 -15
-81 -19 -159 -31 -21 -4 -47 -8 -57 -10 -122 -24 -456 -24 -594 0 -52 9 -99
17 -125 21 -111 20 -335 89 -440 136 -71 32 -172 83 -210 106 -19 12 -42 25
-50 29 -37 16 -198 132 -273 196 -222 190 -386 396 -515 647 -65 127 -132 292
-157 390 -2 8 -11 40 -19 70 -9 30 -18 73 -22 95 -3 22 -7 42 -9 45 -2 3 -6
24 -9 46 -4 22 -8 50 -11 63 -13 70 -20 185 -20 341 1 205 7 274 40 432 162
792 792 1432 1615 1643 52 13 106 26 120 29 14 2 41 7 60 11 202 38 489 39
710 3 142 -23 399 -92 435 -118 6 -3 32 -15 58 -24 61 -23 201 -95 287 -149
122 -77 263 -190 389 -313 l126 -124 715 5 c393 3 729 6 745 8 17 2 36 5 43 5
20 3 8 44 -41 140 -86 170 -237 406 -373 582 -104 133 -387 424 -524 537 -152
126 -449 333 -477 333 -3 0 -14 6 -22 14 -28 24 -203 111 -332 165 -68 29
-133 56 -144 61 -33 15 -196 68 -257 85 -32 8 -82 21 -110 29 -29 8 -89 21
-133 30 -105 21 -111 22 -175 32 -30 4 -57 8 -60 9 -3 1 -36 5 -75 9 -38 4
-83 10 -100 12 -16 2 -129 6 -250 9 -360 9 -407 12 -415 25 -11 18 -12 103
-15 1300 -1 591 -3 1077 -4 1080 -1 5 -140 8 -145 3z"/>
<path d="M11183 16744 c-7 -18 0 -1281 7 -1288 3 -2 28 -8 55 -12 28 -3 57 -7
65 -9 8 -1 40 -6 70 -9 48 -6 155 -21 215 -31 266 -42 594 -125 723 -182 28
-12 55 -23 60 -24 4 0 22 -7 41 -15 18 -8 37 -14 41 -14 13 0 196 -77 389
-165 207 -94 210 -94 211 -30 1 17 3 53 5 80 7 107 18 603 17 860 0 328 -2
405 -13 426 -31 60 -793 287 -1154 343 -16 3 -70 12 -120 20 -119 20 -133 22
-415 52 -120 12 -192 12 -197 -2z"/>
<path d="M8623 6804 c-5 -11 -8 -328 -8 -706 0 -598 2 -689 15 -701 41 -39
484 -193 735 -255 150 -38 312 -75 380 -87 137 -25 197 -35 240 -40 28 -4 57
-8 65 -10 8 -2 42 -7 75 -10 33 -4 71 -8 84 -10 31 -5 204 -18 261 -19 l45 -1
0 648 c0 423 -3 651 -10 657 -9 7 -84 17 -200 25 -27 2 -63 6 -80 9 -16 3 -52
8 -80 12 -27 3 -59 8 -70 10 -11 3 -40 9 -65 14 -270 54 -676 178 -925 282
-93 39 -120 51 -264 120 -173 82 -188 87 -198 62z"/>
</g>
</svg>
